<?xml version="1.0" encoding="UTF-8"?>
<svg id="Layer_1" xmlns="http://www.w3.org/2000/svg" version="1.1" viewBox="0 0 327.39 59.4">
  
  <defs>
    
  </defs>
  <path fill="#A01818" d="M48.07,20.99c-1.53-.23-2.96.82-3.19,2.35l-.63,4.15-1.37-9.04h0s-.63-4.14-.63-4.14h0s0-.01,0-.01c0-.04-.02-.08-.03-.12-.02-.1-.05-.2-.08-.3-.03-.08-.05-.16-.09-.24-.04-.09-.08-.17-.12-.25-.04-.08-.09-.16-.14-.23-.05-.08-.11-.15-.16-.22-.06-.07-.11-.13-.18-.2-.07-.07-.14-.13-.21-.19-.07-.05-.13-.11-.2-.15-.08-.05-.16-.1-.24-.15-.08-.04-.16-.08-.24-.11-.08-.04-.17-.07-.26-.09-.09-.03-.18-.05-.28-.07-.04,0-.09-.03-.13-.03-.05,0-.09,0-.13,0-.09,0-.18-.01-.28-.01-.1,0-.2,0-.3.02-.04,0-.08,0-.12,0-.04,0-.08.02-.12.03-.1.02-.2.05-.3.08-.08.03-.16.05-.24.09-.09.04-.17.08-.26.12-.08.04-.15.09-.23.14-.08.05-.15.11-.22.16-.07.06-.13.11-.19.17-.07.07-.13.14-.19.21-.05.07-.11.13-.15.2-.05.08-.1.16-.14.24-.04.08-.08.16-.12.24-.03.08-.06.16-.09.25-.03.1-.05.19-.07.29,0,.04-.03.08-.03.13l-2.01,13.28-1.38-9.13h0s-.59-3.9-.59-3.9l-.04-.25s-.02-.08-.03-.12c-.02-.1-.05-.2-.08-.3-.03-.08-.05-.16-.09-.24-.04-.09-.08-.17-.12-.25-.04-.08-.09-.16-.14-.23-.05-.08-.11-.15-.16-.22-.06-.07-.11-.13-.18-.2-.07-.07-.14-.13-.21-.19-.07-.05-.13-.11-.2-.15-.08-.05-.16-.1-.24-.15-.08-.04-.16-.08-.24-.11-.08-.04-.17-.07-.26-.09-.09-.03-.18-.05-.28-.07-.04,0-.09-.03-.13-.03-.05,0-.09,0-.13,0-.09,0-.18-.01-.28-.01-.1,0-.2,0-.3.02-.04,0-.08,0-.12,0-.04,0-.08.02-.12.03-.1.02-.2.05-.3.08-.08.03-.16.05-.24.09-.09.04-.17.08-.26.12-.08.04-.15.09-.23.14-.08.05-.15.11-.22.16-.07.06-.13.11-.2.17-.07.07-.13.14-.19.21-.05.07-.11.13-.15.2-.05.08-.1.16-.14.24-.04.08-.08.16-.12.24-.03.08-.06.16-.09.25-.03.1-.05.19-.07.29,0,.04-.03.08-.03.12l-1.99,13.17-1.37-9.02h0s-.63-4.14-.63-4.14h0s0-.01,0-.01c0-.04-.02-.08-.03-.12-.02-.1-.05-.2-.08-.3-.03-.08-.05-.16-.09-.24-.04-.09-.08-.17-.12-.25-.04-.08-.09-.16-.14-.23-.05-.08-.11-.15-.16-.22-.06-.07-.11-.13-.17-.2-.07-.07-.14-.13-.21-.19-.07-.05-.13-.1-.2-.15-.08-.05-.16-.1-.24-.15-.08-.04-.15-.08-.24-.11-.08-.04-.17-.07-.26-.09-.09-.03-.18-.05-.28-.07-.05,0-.09-.03-.13-.03-.05,0-.09,0-.13,0-.09,0-.18-.01-.28-.01-.1,0-.2,0-.3.02-.04,0-.08,0-.12,0-.04,0-.08.02-.12.03-.1.02-.2.05-.3.08-.08.03-.16.05-.23.08-.09.04-.17.08-.26.12-.08.04-.15.09-.22.13-.08.05-.15.11-.22.17-.07.06-.13.11-.19.17-.07.07-.13.14-.19.21-.05.07-.1.13-.15.2-.05.08-.1.16-.15.24-.04.08-.08.16-.12.24-.03.08-.06.17-.09.25-.03.09-.05.19-.07.29,0,.04-.03.08-.03.13l-4.76,31.46c-.23,1.53.82,2.96,2.35,3.19,1.53.23,2.96-.82,3.19-2.35l1.99-13.17,1.99,13.17s.02.08.03.13c.02.1.04.19.07.29.03.09.06.17.09.25.03.08.07.16.12.24.05.08.09.16.15.24.05.07.1.14.15.2.06.07.12.14.19.21.06.06.13.12.19.17.07.06.14.11.22.17.07.05.15.09.22.13.08.05.17.09.26.12.08.03.15.06.23.08.1.03.2.06.31.08.04,0,.08.02.12.03.04,0,.08,0,.12,0,.1.01.2.02.3.02.09,0,.19,0,.28-.01.05,0,.09,0,.13,0,.05,0,.09-.02.13-.03.1-.02.19-.04.28-.07.09-.03.17-.06.26-.09.08-.03.16-.07.24-.11.08-.05.17-.09.24-.15.07-.05.14-.1.2-.15.07-.06.14-.12.21-.19.06-.06.12-.13.17-.19.06-.07.11-.14.16-.22.05-.07.09-.15.14-.23.04-.08.09-.17.12-.25.03-.08.06-.16.09-.24.03-.1.06-.2.08-.3,0-.04.02-.08.03-.12l1.99-13.17,1.99,13.17c.16,1.05.89,1.87,1.83,2.21,0,0,.01,0,.02,0,.15.05.31.09.47.12.02,0,.05.01.07.02.02,0,.05,0,.07,0,.11.01.22.02.34.02.11,0,.21,0,.31-.02.03,0,.06,0,.08,0,.03,0,.05-.02.08-.02.15-.03.3-.06.45-.11.01,0,.03,0,.04-.01.93-.34,1.66-1.15,1.82-2.2l1.99-13.17,1.99,13.17c.01.07.04.14.05.21,0,.03.02.07.03.1.04.15.09.3.16.44,0,.01.01.03.02.04.07.15.16.3.26.44,0,0,0,0,0,.01.1.14.22.27.35.39,0,0,0,0,.01.01.13.12.26.22.41.31,0,0,.02.01.03.02.15.09.3.16.46.22.01,0,.03,0,.04.01.16.06.33.1.5.13.01,0,.02,0,.03,0,.01,0,.02,0,.03,0,.15.02.31.03.47.02.04,0,.08,0,.13,0,.07,0,.13,0,.2-.01.07-.01.13-.04.2-.05.06-.01.11-.03.16-.04.12-.04.24-.08.35-.13.06-.02.11-.05.16-.08.1-.05.2-.11.29-.18.06-.04.12-.09.17-.13.08-.06.15-.13.22-.2.07-.07.13-.13.18-.21.05-.06.1-.12.14-.19.06-.09.12-.18.17-.28.03-.06.06-.12.09-.18.05-.11.09-.22.12-.33.02-.06.03-.12.05-.18.01-.06.04-.13.05-.19l3.39-22.41c.23-1.53-.82-2.96-2.35-3.19Z"></path>
  <polygon fill="#0A0A0A" points="65.69 32.12 62.55 34.92 60.65 48.41 53.52 48.41 58.53 12.76 65.66 12.76 64.04 24.27 76.1 12.76 85.73 12.76 71.29 26.72 81.02 48.41 72.52 48.41 65.69 32.12"></polygon>
  <polygon fill="#0A0A0A" points="84.84 48.41 89.85 12.76 96.98 12.76 91.97 48.41 84.84 48.41"></polygon>
  <polygon fill="#0A0A0A" points="109.49 32.12 106.34 34.92 104.45 48.41 97.32 48.41 102.33 12.76 109.46 12.76 107.84 24.27 119.9 12.76 129.52 12.76 115.09 26.72 124.82 48.41 116.31 48.41 109.49 32.12"></polygon>
  <path fill="#0A0A0A" d="M134.4,30.59h0c-.87,6.16,3.42,11.15,9.59,11.15s11.86-4.99,12.72-11.15c.87-6.16-3.42-11.15-9.59-11.15s-11.85,4.99-12.72,11.15M164.04,30.59c-1.43,10.18-10.9,18.49-21.09,18.49s-17.32-8.3-15.89-18.49c1.43-10.19,10.9-18.49,21.08-18.49s17.32,8.3,15.89,18.49Z"></path>
  <path fill="#0A0A0A" d="M226.38,35.27c-1.07,7.64-8.15,13.8-15.74,13.8s-12.94-6.16-11.92-13.75l3.17-22.56h7.13l-3.16,22.51c-.25,1.78.23,3.46,1.32,4.74,1.09,1.27,2.68,1.94,4.46,1.94s3.51-.66,4.96-1.94c1.45-1.27,2.34-2.9,2.64-4.68h-.05l3.17-22.56h7.13l-3.16,22.51h.05Z"></path>
  <polygon fill="#0A0A0A" points="259.79 12.76 258.79 19.89 248.91 19.89 244.89 48.46 237.77 48.46 241.78 19.89 231.85 19.89 232.85 12.76 259.79 12.76"></polygon>
  <path fill="#0A0A0A" d="M265.13,30.59h0c-.87,6.16,3.42,11.15,9.58,11.15s11.85-4.99,12.72-11.15c.87-6.16-3.42-11.15-9.59-11.15s-11.85,4.99-12.72,11.15M294.77,30.59c-1.43,10.18-10.9,18.49-21.09,18.49s-17.32-8.3-15.89-18.49c1.43-10.19,10.9-18.49,21.08-18.49s17.32,8.3,15.89,18.49Z"></path>
  <path fill="#0A0A0A" d="M308.03,33.34c-1.13-.31-3.24-.87-5.08-2.24-2.59-1.88-3.78-4.63-3.45-8.05.25-2.85,1.52-5.35,3.62-7.28,3.03-2.75,6.96-3.51,8.8-3.51,5.19,0,7.83,1.88,10.19,3.56l1.06.76-4.57,6.06-1.16-.81c-2.08-1.48-3.43-2.44-6.53-2.44-.46,0-2.29.36-3.34,1.32-.35.31-.78.87-.9,2.04-.21,1.83.92,2.85,4.07,3.67.39.1.68.2.98.31,3.25,1.17,5.67,2.75,7.23,4.74,1.55,2.04,2.18,4.43,1.82,6.98-.35,2.5-1.78,5.09-3.85,7.08-2.42,2.34-5.51,3.67-8.72,3.67-1.58,0-3.7-.1-6.14-.87-3.07-1.02-5.67-2.8-7.75-5.4l5.88-4.89c3.2,4.02,7.43,4.02,9.01,4.02,2.95,0,4.3-2.7,4.43-3.62.27-1.94-1.67-3.72-5.21-4.99l-.15-.05-.25-.05Z"></path>
  <polygon fill="#0A0A0A" points="185.54 12.57 183.45 12.57 160.26 48.05 168.25 48.05 170.09 45.43 181.15 45.42 184.9 38.55 174.68 38.57 182.35 26.76 186.23 38.56 188.55 45.34 189.49 48.05 197.38 48.05 185.54 12.57"></polygon>
</svg>